REM DIRINDEX 1\2\6,1\2\7,1\2\8,1\2\9,1\3\10,1\3\11,1\4\12,1\4\13,1\4\14,1\5\15,1\5\16,1\5\17
REM DIRNAME cjc020,folder01,folder02,folder03,folder04,folder05,folder06,folder07,folder08,folder09,folder10,folder11,folder12,folder13,folder14,folder15,folder16
TITLE ""
FILE "1900_2_sec04_0380_0400.mp3" MP3
  TRACK 01 AUDIO
    TITLE "0:"
    INDEX 01 00:00:00
  TRACK 02 AUDIO
    TITLE "13:cjc020_2860"
    INDEX 01 00:00:17
  TRACK 03 AUDIO
    TITLE "0:"
    INDEX 01 00:01:38
  TRACK 04 AUDIO
    TITLE "14:cjc020_2861"
    INDEX 01 00:01:44
  TRACK 05 AUDIO
    TITLE "0:"
    INDEX 01 00:04:66
  TRACK 06 AUDIO
    TITLE "13:cjc020_2862"
    INDEX 01 00:05:48
  TRACK 07 AUDIO
    TITLE "0:"
    INDEX 01 00:07:07
  TRACK 08 AUDIO
    TITLE "14:cjc020_2863"
    INDEX 01 00:07:11
  TRACK 09 AUDIO
    TITLE "0:"
    INDEX 01 00:08:44
  TRACK 10 AUDIO
    TITLE "13:cjc020_2864"
    INDEX 01 00:09:22
  TRACK 11 AUDIO
    TITLE "0:"
    INDEX 01 00:10:29
  TRACK 12 AUDIO
    TITLE "14:cjc020_2865"
    INDEX 01 00:10:31
  TRACK 13 AUDIO
    TITLE "0:"
    INDEX 01 00:11:46
  TRACK 14 AUDIO
    TITLE "13:cjc020_2866"
    INDEX 01 00:12:26
  TRACK 15 AUDIO
    TITLE "0:"
    INDEX 01 00:13:43
  TRACK 16 AUDIO
    TITLE "14:cjc020_2867"
    INDEX 01 00:13:47
  TRACK 17 AUDIO
    TITLE "0:"
    INDEX 01 00:16:28
  TRACK 18 AUDIO
    TITLE "13:cjc020_2868"
    INDEX 01 00:17:04
  TRACK 19 AUDIO
    TITLE "0:"
    INDEX 01 00:18:21
  TRACK 20 AUDIO
    TITLE "14:cjc020_2869"
    INDEX 01 00:18:25
  TRACK 21 AUDIO
    TITLE "0:"
    INDEX 01 00:21:21
  TRACK 22 AUDIO
    TITLE "13:cjc020_2870"
    INDEX 01 00:22:01
  TRACK 23 AUDIO
    TITLE "0:"
    INDEX 01 00:23:14
  TRACK 24 AUDIO
    TITLE "14:cjc020_2871"
    INDEX 01 00:23:20
  TRACK 25 AUDIO
    TITLE "0:"
    INDEX 01 00:26:69
  TRACK 26 AUDIO
    TITLE "13:cjc020_2872"
    INDEX 01 00:27:47
  TRACK 27 AUDIO
    TITLE "0:"
    INDEX 01 00:28:70
  TRACK 28 AUDIO
    TITLE "14:cjc020_2873"
    INDEX 01 00:28:74
  TRACK 29 AUDIO
    TITLE "0:"
    INDEX 01 00:32:48
  TRACK 30 AUDIO
    TITLE "13:cjc020_2874"
    INDEX 01 00:33:28
  TRACK 31 AUDIO
    TITLE "0:"
    INDEX 01 00:34:42
  TRACK 32 AUDIO
    TITLE "14:cjc020_2875"
    INDEX 01 00:34:55
  TRACK 33 AUDIO
    TITLE "0:"
    INDEX 01 00:39:00
  TRACK 34 AUDIO
    TITLE "13:cjc020_2876"
    INDEX 01 00:39:58
  TRACK 35 AUDIO
    TITLE "0:"
    INDEX 01 00:41:06
  TRACK 36 AUDIO
    TITLE "14:cjc020_2877"
    INDEX 01 00:41:08
  TRACK 37 AUDIO
    TITLE "0:"
    INDEX 01 00:44:38
  TRACK 38 AUDIO
    TITLE "13:cjc020_2878"
    INDEX 01 00:45:14
  TRACK 39 AUDIO
    TITLE "0:"
    INDEX 01 00:46:25
  TRACK 40 AUDIO
    TITLE "14:cjc020_2879"
    INDEX 01 00:46:27
  TRACK 41 AUDIO
    TITLE "0:"
    INDEX 01 00:48:61
  TRACK 42 AUDIO
    TITLE "13:cjc020_2880"
    INDEX 01 00:49:39
  TRACK 43 AUDIO
    TITLE "0:"
    INDEX 01 00:50:52
  TRACK 44 AUDIO
    TITLE "14:cjc020_2881"
    INDEX 01 00:50:54
  TRACK 45 AUDIO
    TITLE "0:"
    INDEX 01 00:53:25
  TRACK 46 AUDIO
    TITLE "13:cjc020_2882"
    INDEX 01 00:54:03
  TRACK 47 AUDIO
    TITLE "0:"
    INDEX 01 00:55:18
  TRACK 48 AUDIO
    TITLE "14:cjc020_2883"
    INDEX 01 00:55:24
  TRACK 49 AUDIO
    TITLE "0:"
    INDEX 01 00:59:34
  TRACK 50 AUDIO
    TITLE "13:cjc020_2884"
    INDEX 01 01:00:17
  TRACK 51 AUDIO
    TITLE "0:"
    INDEX 01 01:01:21
  TRACK 52 AUDIO
    TITLE "14:cjc020_2885"
    INDEX 01 01:01:25
  TRACK 53 AUDIO
    TITLE "0:"
    INDEX 01 01:02:34
  TRACK 54 AUDIO
    TITLE "13:cjc020_2886"
    INDEX 01 01:03:16
  TRACK 55 AUDIO
    TITLE "0:"
    INDEX 01 01:04:33
  TRACK 56 AUDIO
    TITLE "14:cjc020_2887"
    INDEX 01 01:04:37
  TRACK 57 AUDIO
    TITLE "0:"
    INDEX 01 01:06:42
  TRACK 58 AUDIO
    TITLE "13:cjc020_2888"
    INDEX 01 01:07:19
  TRACK 59 AUDIO
    TITLE "0:"
    INDEX 01 01:08:27
  TRACK 60 AUDIO
    TITLE "14:cjc020_2889"
    INDEX 01 01:08:35
  TRACK 61 AUDIO
    TITLE "0:"
    INDEX 01 01:10:69
  TRACK 62 AUDIO
    TITLE "12:cjc020_2890"
    INDEX 01 01:12:44
  TRACK 63 AUDIO
    TITLE "0:"
    INDEX 01 01:14:47
  TRACK 64 AUDIO
    TITLE "13:cjc020_2891"
    INDEX 01 01:15:48
  TRACK 65 AUDIO
    TITLE "0:"
    INDEX 01 01:16:71
  TRACK 66 AUDIO
    TITLE "14:cjc020_2892"
    INDEX 01 01:16:73
  TRACK 67 AUDIO
    TITLE "0:"
    INDEX 01 01:18:15
  TRACK 68 AUDIO
    TITLE "13:cjc020_2893"
    INDEX 01 01:18:70
  TRACK 69 AUDIO
    TITLE "0:"
    INDEX 01 01:20:10
  TRACK 70 AUDIO
    TITLE "14:cjc020_2894"
    INDEX 01 01:20:12
  TRACK 71 AUDIO
    TITLE "0:"
    INDEX 01 01:22:01
  TRACK 72 AUDIO
    TITLE "13:cjc020_2895"
    INDEX 01 01:22:54
  TRACK 73 AUDIO
    TITLE "0:"
    INDEX 01 01:24:08
  TRACK 74 AUDIO
    TITLE "14:cjc020_2896"
    INDEX 01 01:24:10
  TRACK 75 AUDIO
    TITLE "0:"
    INDEX 01 01:26:40
  TRACK 76 AUDIO
    TITLE "13:cjc020_2897"
    INDEX 01 01:27:20
  TRACK 77 AUDIO
    TITLE "0:"
    INDEX 01 01:28:27
  TRACK 78 AUDIO
    TITLE "14:cjc020_2898"
    INDEX 01 01:28:29
  TRACK 79 AUDIO
    TITLE "0:"
    INDEX 01 01:29:27
  TRACK 80 AUDIO
    TITLE "13:cjc020_2899"
    INDEX 01 01:30:07
  TRACK 81 AUDIO
    TITLE "0:"
    INDEX 01 01:31:30
  TRACK 82 AUDIO
    TITLE "14:cjc020_2900"
    INDEX 01 01:31:36
  TRACK 83 AUDIO
    TITLE "0:"
    INDEX 01 01:36:25
  TRACK 84 AUDIO
    TITLE "13:cjc020_2901"
    INDEX 01 01:37:05
  TRACK 85 AUDIO
    TITLE "0:"
    INDEX 01 01:38:02
  TRACK 86 AUDIO
    TITLE "14:cjc020_2902"
    INDEX 01 01:38:08
  TRACK 87 AUDIO
    TITLE "0:"
    INDEX 01 01:41:46
